<svg xmlns="http://www.w3.org/2000/svg" version="1.1" xmlns:xlink="http://www.w3.org/1999/xlink" xmlns:svgjs="http://svgjs.dev/svgjs" width="1000" height="1000" viewBox="0 0 1000 1000"><rect width="1000" height="1000" fill="#c8c8c8"></rect><g transform="matrix(0.7,0,0,0.7,150.00008093749994,106.25)"><svg viewBox="0 0 320 360" data-background-color="#c8c8c8" preserveAspectRatio="xMidYMid meet" height="1125" width="1000" xmlns="http://www.w3.org/2000/svg" xmlns:xlink="http://www.w3.org/1999/xlink"><g id="tight-bounds" transform="matrix(1,0,0,1,-0.0000369999999634274,0)"><svg viewBox="0 0 320 360" height="360" width="320"><g><svg></svg></g><g><svg viewBox="0 0 320 360" height="360" width="320"><g><path transform="translate(-29.57346,-9.38389) scale(3.79147,3.79147)" d="M50 13.6c19.1 0 34.8 14.8 36.3 33.5h5.9c-0.3-4.7-1.4-9.2-3.2-13.5-2.1-5-5.2-9.6-9.1-13.4-3.9-3.9-8.4-6.9-13.4-9.1-5.3-2.2-10.8-3.4-16.5-3.4-5.7 0-11.2 1.1-16.5 3.3-5 2.1-9.6 5.2-13.4 9.1-3.9 3.9-6.9 8.4-9.1 13.4-1.8 4.3-2.9 8.9-3.2 13.5h5.9c1.5-18.6 17.2-33.4 36.3-33.4zM50 86.4c-19.1 0-34.8-14.8-36.3-33.5h-5.9c0.3 4.7 1.4 9.2 3.2 13.5 2.1 5 5.2 9.6 9.1 13.4 3.9 3.9 8.4 6.9 13.4 9.1 5.2 2.2 10.7 3.3 16.5 3.3 5.8 0 11.2-1.1 16.5-3.3 5-2.1 9.6-5.2 13.4-9.1 3.9-3.9 6.9-8.4 9.1-13.4 1.8-4.3 2.9-8.9 3.2-13.5h-5.9c-1.5 18.7-17.2 33.5-36.3 33.5z" fill="#000000" fill-rule="nonzero" stroke="none" stroke-width="1" stroke-linecap="butt" stroke-linejoin="miter" stroke-miterlimit="10" stroke-dasharray="" stroke-dashoffset="0" font-family="none" font-weight="none" font-size="none" text-anchor="none" style="mix-blend-mode: normal" data-fill-palette-color="tertiary"></path></g><g transform="matrix(1,0,0,1,83.98165813427508,90)"><svg viewBox="0 0 152.03668373144984 180" height="180" width="152.03668373144984"><g><svg viewBox="0 0 209.03999999999996 247.48763967032352" height="180" width="152.03668373144984"><g><rect width="209.03999999999996" height="7.580219530245692" x="0" y="136.00832707948862" fill="#000000" opacity="1" stroke-width="0" stroke="transparent" fill-opacity="1" class="rect-r$-0" data-fill-palette-color="primary" rx="1%" id="r$-0" data-palette-color="#000000"></rect></g><g transform="matrix(1,0,0,1,0.5199999999999818,163.43205323341414)"><svg viewBox="0 0 208 84.0555864369094" height="84.0555864369094" width="208"><g id="textblocktransform"><svg viewBox="0 0 208 84.0555864369094" height="84.0555864369094" width="208" id="textblock"><g><svg viewBox="0 0 208 84.0555864369094" height="84.0555864369094" width="208"><g transform="matrix(1,0,0,1,0,0)"><svg width="208" viewBox="3.85 -35.9 89.94000000000001 36.35" height="84.0555864369094" data-palette-color="#000000"><g class="wordmark-text-0" data-fill-palette-color="primary" id="text-0"><path d="M13.7-16.65L27.25 0 22 0 8.7-16.65 21.55-33.7 26.55-33.7 13.7-16.65ZM7.9-33.7L7.9 0 3.85 0 3.85-33.7 7.9-33.7ZM54.6-12.6L54.6-12.6Q54.6-6.95 51.4-3.25 48.2 0.45 42.6 0.45L42.6 0.45Q37.15 0.45 33.97-3.23 30.8-6.9 30.8-12.5L30.8-12.5Q30.8-18.15 34.07-21.93 37.35-25.7 42.6-25.7L42.6-25.7Q48.35-25.7 51.47-22 54.6-18.3 54.6-12.6ZM34.9-12.55L34.9-12.55Q34.9-8.6 37-5.83 39.1-3.05 42.6-3.05L42.6-3.05Q46.4-3.05 48.45-5.78 50.5-8.5 50.5-12.55L50.5-12.55Q50.5-16.75 48.55-19.48 46.6-22.2 42.6-22.2L42.6-22.2Q39-22.2 36.95-19.4 34.9-16.6 34.9-12.55ZM70.45-16.65L84 0 78.75 0 65.45-16.65 78.3-33.7 83.3-33.7 70.45-16.65ZM64.65-33.7L64.65 0 60.6 0 60.6-33.7 64.65-33.7ZM93.19-25.35L93.19 0 89.24 0 89.24-25.35 93.19-25.35ZM93.04-35.15Q93.79-34.4 93.79-33.3 93.79-32.2 93.04-31.48 92.29-30.75 91.19-30.75 90.09-30.75 89.37-31.48 88.64-32.2 88.64-33.3 88.64-34.4 89.37-35.15 90.09-35.9 91.19-35.9 92.29-35.9 93.04-35.15Z" fill="#000000" data-fill-palette-color="primary"></path></g></svg></g></svg></g></svg></g></svg></g><g transform="matrix(1,0,0,1,46.42210244561677,0)"><svg viewBox="0 0 116.19579510876642 116.16482045580881" height="116.16482045580881" width="116.19579510876642"><g><svg xmlns="http://www.w3.org/2000/svg" xmlns:xlink="http://www.w3.org/1999/xlink" version="1.1" x="0" y="0" viewBox="5.767766376421672 4.766 88.37818934449581 88.35463011206915" enable-background="new 0 0 100 100" xml:space="preserve" height="116.16482045580881" width="116.19579510876642" class="icon-icon-0" data-fill-palette-color="accent" id="icon-0"><path d="M76.198 13.399C69.34 10.477 59.813 4.766 50 4.766c-6.866 0-12.448 4.016-18.712 5.484C14.866 14.101 8.298 31.428 5.946 48.82c-0.778 5.75 1.122 11.343 3.161 16.417 2.572 6.401 7.436 11.038 11.684 16.563C27.123 90.035 38.836 91.906 50 92.875c22.737 1.974 26.801-8.106 39.545-24.617 3.993-5.173 4.001-12.479 4.51-19.438C95.161 33.693 86.004 17.579 76.198 13.399zM45.936 12.147l9.979 9.858-4.751 2.316-7.366-8.255L45.936 12.147zM45.52 34.111l6.278 1.267 2.585 4.306-3.446 4.053-7.879-4.053L45.52 34.111zM20.119 59.892l-6.531-6.474 3.965-3.907 5.015 4.688L20.119 59.892zM22.567 30.069l5.776-5.549 5.436 3.963-1.359 6.116h-5.889L22.567 30.069zM31.946 62.465l3.477-4.814 8.461-1.851 2.898 8.64-9.389 2.346L31.946 62.465zM53.857 85.744l-8.869-3.393 0.851-7.253 8.14 4.329 4.374 1.578L53.857 85.744zM76.707 73.347l-4.883 0.494-1.14-4.937 5.371-3.331 2.931 2.221L76.707 73.347zM76.429 56.932l-10.5-3.763 3.267-7.951 12.249 3.939L76.429 56.932zM79.344 34.451l-8.659-3.678V24.52l8.135 1.226 2.625 5.027L79.344 34.451z" fill="#000000" data-fill-palette-color="accent"></path></svg></g></svg></g><g></g></svg></g></svg></g></svg></g><defs></defs></svg><rect width="320" height="360" fill="none" stroke="none" visibility="hidden"></rect></g></svg></g></svg>