<?xml version="1.0" encoding="utf-8"?>
<!-- Generator: Adobe Illustrator 27.3.1, SVG Export Plug-In . SVG Version: 6.00 Build 0)  -->
<svg version="1.1" xmlns="http://www.w3.org/2000/svg" xmlns:xlink="http://www.w3.org/1999/xlink" x="0px" y="0px"
	 viewBox="0 0 60 59" style="enable-background:new 0 0 345.83 62.36;" xml:space="preserve">
<style type="text/css">
	.st0{fill:none;}
	.st1{fill:#8EBAE5;}
	.st2{fill:#00549F;}
	.st3{fill:#407FB7;}
	.st4{fill:#A11035;}
</style>
<g id="Schutzraum">
	<rect y="-90.71" class="st0" width="371.45" height="90.71"/>
	<rect y="-90.71" class="st0" width="371.45" height="90.71"/>
	<rect y="-90.71" class="st0" width="371.45" height="90.71"/>
	<rect y="-90.71" class="st0" width="371.45" height="90.71"/>
	<rect y="-90.71" class="st0" width="371.45" height="90.71"/>
</g>
<g id="Logo">

	<g>
		<path class="st1" d="M26.27,11.7c0.1,0,0.19-0.01,0.29-0.02l0.44-0.82c-0.74,0.19-1.66,0.07-2.69-0.24
			c-0.2,0.07-0.4,0.15-0.59,0.24c-0.13,0.06-0.26,0.13-0.39,0.2C24.4,11.45,25.41,11.7,26.27,11.7"/>
		<path class="st1" d="M27.39,53.03c-1.73-0.46-3.58-0.75-5.48-0.87c1.39,0.79,3.06,1.23,4.99,1.34
			C27.03,53.32,27.2,53.16,27.39,53.03"/>
		<path class="st1" d="M17.1,22.53c-0.06-0.33-0.11-0.68-0.14-1.04c-3.44-2.63-9.54-4.47-14.82-5.67c-0.11,0.23-0.22,0.47-0.33,0.71
			C7.41,17.79,13.97,19.75,17.1,22.53"/>
		<path class="st3" d="M17.7,24.5c-0.17-0.39-0.31-0.82-0.43-1.27C13.7,20.8,6.5,19.47,0.91,18.77c-0.09,0.24-0.17,0.48-0.25,0.73
			C7.17,20.32,14.95,21.88,17.7,24.5"/>
		<path class="st3" d="M21.52,35.35c1.46-1.71,2.06-3.52,1.77-5.4c-0.02-0.1-0.05-0.19-0.07-0.28c-0.34-0.16-0.67-0.32-0.99-0.5
			c0.16,0.29,0.27,0.59,0.32,0.9c0.26,1.65-0.28,3.27-1.59,4.8c-3.43,4-11.43,6.83-18.51,8.33c0.11,0.23,0.23,0.45,0.35,0.68
			C9.96,42.32,18.02,39.43,21.52,35.35"/>
		<path class="st1" d="M31.79,36.06l0.4,0.72c1.69-0.1,3.24-0.05,4.45,0.09c-0.03-0.13-0.05-0.26-0.05-0.4
			c0-0.12,0.01-0.24,0.04-0.36C35.31,35.97,33.62,35.93,31.79,36.06"/>
		<path class="st2" d="M25.53,55.3c0.41-0.04,0.82-0.07,1.22-0.09c-0.08-0.19-0.14-0.39-0.15-0.61c-0.27-0.02-0.53-0.05-0.79-0.08
			c-0.11,0.01-0.23,0.02-0.35,0.03c-3.39,0.31-6.59,1.13-9.32,2.37c0.29,0.15,0.59,0.29,0.88,0.43
			C19.55,56.29,22.46,55.58,25.53,55.3 M40.75,58.43c-2.17-1.88-5.55-3.38-9.17-4.17c-0.49,0.11-1,0.2-1.54,0.26
			c0,0.07-0.01,0.14-0.02,0.21c3.84,0.61,7.52,2.08,9.9,3.98C40.2,58.62,40.48,58.52,40.75,58.43"/>
		<path class="st1" d="M40.41,39.82c4.15,3.11,10.53,5.51,15.44,6.89c0.15-0.22,0.29-0.44,0.44-0.66
			c-5.34-1.49-12.23-4.16-16.19-7.44C40.23,38.99,40.33,39.4,40.41,39.82"/>
		<path class="st3" d="M39.85,37.28c-0.05,0.09-0.11,0.18-0.17,0.27c0.12,0.23,0.22,0.48,0.32,0.73c4.59,2.89,12.28,4.37,17.93,4.94
			c0.12-0.24,0.24-0.48,0.35-0.72C52.26,41.91,44.15,40.27,39.85,37.28 M58.89,17.32c-0.1-0.24-0.2-0.47-0.3-0.7
			c-6.88,1.81-24.94,7.21-25.06,14.17c-0.01,0.53,0.07,1.04,0.24,1.52c0.38,0.16,0.74,0.33,1.1,0.52c-0.41-0.62-0.6-1.29-0.59-2.02
			C34.39,24.39,52.25,19.07,58.89,17.32"/>
		<path class="st1" d="M33.61,9.83c5-1.27,11.85-5.28,13.82-6.47c-0.23-0.15-0.47-0.31-0.7-0.46c-2.47,1.48-9.89,5.73-14.43,6.47
			C32.76,9.5,33.2,9.65,33.61,9.83"/>
		<path class="st3" d="M29.9,8.95c0.45,0.04,0.87,0.1,1.29,0.18C36.17,7.58,43,2.66,44.44,1.59c-0.25-0.13-0.5-0.25-0.76-0.38
			c-2.08,1.51-9.43,6.66-13.88,7.52C29.84,8.8,29.88,8.87,29.9,8.95"/>
		<path class="st2" d="M29.88,8.9c3.05-2.13,9.24-6.71,11.76-8.58C41.37,0.21,41.09,0.1,40.81,0c-3.62,2.68-8.7,6.42-11.32,8.25
			C29.67,8.44,29.8,8.65,29.88,8.9"/>
		<path class="st2" d="M27.07,8.16c-2.24-1.45-6.45-4.86-9.43-7.4c-0.25,0.11-0.5,0.23-0.75,0.35c1.71,1.46,6.87,5.82,9.77,7.66
			C26.76,8.54,26.89,8.33,27.07,8.16"/>
		<path class="st3" d="M26.44,8.98c-3.75-0.96-9.15-4.93-11.58-6.82c-0.23,0.13-0.47,0.27-0.7,0.41c2.07,1.64,6.81,5.18,10.73,6.68
			C25.39,9.14,25.9,9.05,26.44,8.98"/>
		<path class="st1" d="M22.75,10.04c-3.79-1.65-8.3-5.09-10.08-6.5c-0.22,0.15-0.43,0.3-0.64,0.45c1.6,1.28,5.97,4.67,9.93,6.5
			C22.21,10.33,22.47,10.18,22.75,10.04"/>
		<path class="st1" d="M21.01,52.86c-0.39-0.24-0.75-0.5-1.1-0.77c-0.22,0-0.44,0-0.67,0c-3.02,0.05-5.92,0.52-8.51,1.34
			c0.24,0.19,0.48,0.38,0.72,0.56c2.39-0.71,5.04-1.11,7.8-1.15C19.85,52.83,20.43,52.84,21.01,52.86"/>
		<path class="st1" d="M21.89,39.99c2.86-1.41,5.12-2.52,7.45-2.89c0.69-0.11,1.37-0.19,2.03-0.25l-0.4-0.72
			c-0.58,0.06-1.16,0.13-1.75,0.23c-2.44,0.39-4.74,1.52-7.66,2.96c-4.11,2.02-9.43,4.64-17.76,6.29c0.14,0.23,0.29,0.45,0.43,0.68
			C12.49,44.62,17.78,42.01,21.89,39.99"/>
		<path class="st1" d="M21.89,26.22c0.87,0,2.06,0,3.61-0.02l-0.41-0.75c-2,0.01-3.31,0.01-4.15,0.01c0.03,0.12,0.04,0.25,0.04,0.38
			c0,0.13-0.02,0.25-0.04,0.37C21.2,26.22,21.51,26.22,21.89,26.22 M57.24,13.93c-0.12-0.22-0.25-0.43-0.38-0.65
			C50.63,16.32,31.52,25.4,26.5,25.44c-0.2,0-0.38,0-0.57,0l0.41,0.75c0.06,0,0.1,0,0.16,0C31.57,26.15,49.49,17.7,57.24,13.93"/>
		<path class="st3" d="M24.42,54.43c0.21-0.01,0.42-0.01,0.64-0.02c-0.81-0.14-1.56-0.35-2.25-0.63c-3.12,0.27-6.06,0.99-8.59,2.08
			c0.27,0.16,0.54,0.32,0.81,0.47C17.8,55.23,21.02,54.56,24.42,54.43 M32.25,52.86c0.35-0.11,0.69-0.24,1.01-0.38
			c-0.14-0.01-0.28-0.02-0.42-0.03c-1.32-0.05-2.51,0.23-3.42,0.56l-0.07,0.12c0.11,0.08,0.2,0.18,0.29,0.28
			C30.54,53.3,31.41,53.13,32.25,52.86 M44.43,56.82c-2.15-1.27-5.99-3.21-9.28-4.03c-0.32,0.19-0.65,0.38-0.99,0.55
			c3.16,0.61,7.2,2.59,9.47,3.88C43.9,57.09,44.17,56.95,44.43,56.82"/>
		<path class="st2" d="M40.05,36.52c-0.01,0.27-0.08,0.52-0.19,0.75c4.69,2.5,13.43,2.89,19.41,2.89c0.09-0.25,0.19-0.5,0.27-0.75
			C53.67,39.4,44.57,39.03,40.05,36.52 M59.77,19.7c-0.08-0.24-0.16-0.48-0.24-0.72c-7.86,2.21-22.91,7.27-23.02,13.62
			c-0.01,0.48,0.06,0.95,0.2,1.39c0.14,0.11,0.28,0.22,0.41,0.33c0.21,0.17,0.41,0.36,0.6,0.55c0.08-0.03,0.15-0.05,0.23-0.07
			c-0.48-0.66-0.71-1.38-0.69-2.19C37.36,26.79,52.08,21.87,59.77,19.7"/>
		<path class="st2" d="M17.51,25.85c0-0.24,0.07-0.46,0.16-0.67c-4.35-2.35-12.18-3.54-17.48-4.1C0.12,21.32,0.06,21.56,0,21.81
			c5.89,0.63,13.56,1.91,17.52,4.11C17.52,25.9,17.51,25.87,17.51,25.85 M20.72,28.58c-0.02-0.15-0.06-0.3-0.1-0.44
			c-0.15-0.11-0.29-0.22-0.43-0.33c-0.13-0.1-0.24-0.22-0.36-0.33c-0.11,0.04-0.22,0.07-0.34,0.09c0.26,0.36,0.43,0.74,0.49,1.13
			c0.22,1.44-0.25,2.84-1.39,4.18c-3.09,3.6-10.85,6.23-17.4,7.51c0.09,0.24,0.19,0.48,0.29,0.72c6.58-1.28,14.41-3.92,17.69-7.74
			C20.45,31.84,20.98,30.24,20.72,28.58"/>
		<path class="st4" d="M39.39,42c0,1.85-0.28,3.47-0.82,4.88c-0.08-0.01-0.16-0.02-0.25-0.02c-0.18,0-0.36,0.04-0.53,0.09
			l-2.51-4.55l2.38-4.32c0.2,0.08,0.42,0.13,0.66,0.13c0.1,0,0.2-0.01,0.3-0.03C39.12,39.24,39.39,40.5,39.39,42 M36.59,36.48
			c0,0.45,0.18,0.85,0.46,1.16l-2.19,3.98l-5.23-9.47c0.03-0.03,0.06-0.07,0.09-0.1c0.89,0.3,1.79,0.62,2.69,0.97
			c1.3,0.5,2.47,1.13,3.51,1.89c0.32,0.24,0.61,0.49,0.89,0.76C36.67,35.91,36.59,36.18,36.59,36.48 M34.85,43.17l2.29,4.15
			c-0.25,0.23-0.43,0.54-0.51,0.89h-4.56L34.85,43.17z M31.66,48.96h4.97c0.06,0.26,0.17,0.49,0.33,0.69
			c-0.32,0.41-0.65,0.8-1.02,1.13c-1.05,0.93-2.28,1.62-3.69,2.08c-0.84,0.27-1.71,0.44-2.6,0.55c-0.08-0.11-0.18-0.2-0.29-0.28
			L31.66,48.96z M30.81,48.96l-2.12,3.85c-0.12-0.03-0.24-0.04-0.37-0.04c-0.59,0-1.1,0.29-1.42,0.74
			c-3.05-0.17-5.42-1.18-7.11-3.03c-0.3-0.33-0.56-0.69-0.8-1.06c0.08-0.14,0.14-0.29,0.18-0.45H30.81z M27.35,29.57
			c-0.11,0.09-0.22,0.19-0.31,0.3c-0.62-0.22-1.23-0.45-1.83-0.68c-1.34-0.52-2.54-1.16-3.6-1.92c-0.29-0.21-0.56-0.44-0.82-0.68
			c0.11-0.23,0.17-0.47,0.17-0.74c0-0.51-0.22-0.95-0.56-1.27l2.08-3.82L27.35,29.57z M22.48,19.19l-2.14-3.88
			c0.27-0.22,0.47-0.52,0.56-0.86h4.15L22.48,19.19z M25.46,13.71h-4.53c-0.04-0.24-0.11-0.46-0.24-0.65
			c0.81-0.9,1.82-1.64,3.03-2.19c0.87-0.4,1.85-0.65,2.93-0.77c0.1,0.23,0.26,0.43,0.44,0.6L25.46,13.71z M26.32,13.71l1.44-2.65
			c0.16,0.05,0.32,0.08,0.49,0.08c0.71,0,1.32-0.43,1.59-1.04c2.44,0.25,4.43,1.07,5.96,2.48c0.11,0.1,0.2,0.21,0.3,0.32
			c-0.2,0.23-0.33,0.51-0.39,0.82H26.32z M22.05,19.98l-2.3,4.23c-0.16-0.05-0.33-0.09-0.51-0.09c-0.11,0-0.21,0.01-0.31,0.03
			c-0.54-1.07-0.82-2.39-0.82-3.98c0-1.28,0.21-2.53,0.62-3.75c0.08-0.24,0.18-0.48,0.28-0.71c0.08,0.01,0.15,0.02,0.23,0.02
			c0.15,0,0.29-0.04,0.43-0.07L22.05,19.98z M40.63,42.31c0-1.9-0.32-3.49-0.96-4.77c0.23-0.29,0.38-0.66,0.38-1.07
			c0-0.96-0.77-1.73-1.73-1.73c-0.21,0-0.41,0.04-0.6,0.11c-0.19-0.19-0.39-0.38-0.6-0.55c-1.05-0.87-2.26-1.57-3.6-2.11
			c-1.11-0.44-2.25-0.86-3.41-1.26c0-0.95-0.78-1.72-1.73-1.72c-0.12,0-0.24,0.01-0.35,0.04l-5.12-9.28l3-5.52h9.83
			c0.2,0.73,0.86,1.27,1.66,1.27c0.95,0,1.73-0.77,1.73-1.73s-0.77-1.73-1.73-1.73c-0.1,0-0.19,0.01-0.29,0.03
			c-0.89-0.99-2.01-1.8-3.4-2.43c-1.08-0.49-2.36-0.79-3.81-0.92c-0.2-0.73-0.86-1.27-1.66-1.27c-0.8,0-1.47,0.55-1.67,1.29
			c-1.45,0.15-2.7,0.49-3.75,1.03c-1.25,0.64-2.28,1.43-3.11,2.35c-0.15-0.04-0.31-0.07-0.47-0.07c-0.95,0-1.73,0.77-1.73,1.73
			c0,0.42,0.15,0.8,0.4,1.1c-0.19,0.42-0.36,0.85-0.49,1.29c-0.37,1.28-0.56,2.46-0.56,3.54c0,1.86,0.29,3.42,0.87,4.68
			c0.04,0.08,0.08,0.15,0.12,0.22c-0.21,0.29-0.34,0.64-0.34,1.02c0,0.95,0.77,1.73,1.73,1.73c0.21,0,0.4-0.04,0.59-0.11
			c0.12,0.11,0.23,0.23,0.36,0.33c1.06,0.87,2.28,1.59,3.69,2.17c0.87,0.36,1.81,0.7,2.78,1.04c0.03,0.93,0.79,1.67,1.72,1.67
			c0.22,0,0.42-0.05,0.62-0.12l5.43,9.83l-3.21,5.81H19.16c-0.17-0.77-0.86-1.35-1.68-1.35c-0.96,0-1.73,0.77-1.73,1.73
			c0,0.95,0.77,1.73,1.73,1.73c0.22,0,0.43-0.04,0.62-0.12c0.16,0.22,0.33,0.44,0.51,0.65c0.99,1.14,2.25,2.06,3.78,2.76
			c1.21,0.55,2.61,0.88,4.21,1c0.06,0.9,0.8,1.62,1.72,1.62c0.94,0,1.71-0.76,1.73-1.7c1.38-0.16,2.62-0.48,3.7-0.98
			c1.61-0.74,2.94-1.71,3.97-2.88c0.11-0.12,0.2-0.25,0.3-0.38c0.1,0.02,0.2,0.03,0.31,0.03c0.96,0,1.73-0.77,1.73-1.73
			c0-0.42-0.15-0.79-0.4-1.09c0.1-0.26,0.21-0.53,0.29-0.8C40.4,45.22,40.63,43.76,40.63,42.31 M45.41,10.71
			c0.2-0.32,0.3-0.68,0.3-1.09c0-0.23-0.03-0.47-0.09-0.71c-0.06-0.25-0.16-0.47-0.32-0.68c-0.15-0.2-0.37-0.37-0.64-0.51
			c-0.27-0.13-0.61-0.2-1.03-0.2c-0.37,0-0.69,0.06-0.96,0.17c-0.27,0.11-0.49,0.27-0.67,0.48c-0.17,0.21-0.3,0.45-0.39,0.74
			c-0.08,0.28-0.13,0.6-0.13,0.94h1.03c0-0.15,0.01-0.31,0.03-0.49C42.58,9.17,42.63,9,42.7,8.84c0.08-0.16,0.19-0.29,0.34-0.4
			c0.15-0.11,0.35-0.17,0.61-0.17c0.19,0,0.35,0.04,0.48,0.11c0.13,0.07,0.24,0.17,0.32,0.29c0.08,0.12,0.14,0.26,0.17,0.43
			c0.04,0.16,0.06,0.34,0.06,0.52c0,0.4-0.1,0.74-0.29,1.01c-0.19,0.27-0.5,0.41-0.92,0.41h-0.49v0.75h0.51
			c0.5,0,0.86,0.14,1.09,0.41c0.23,0.27,0.35,0.65,0.35,1.13c0,0.34-0.04,0.62-0.12,0.84c-0.08,0.22-0.18,0.39-0.3,0.51
			c-0.12,0.12-0.26,0.2-0.41,0.25C43.95,14.98,43.8,15,43.66,15c-0.22,0-0.42-0.05-0.58-0.14c-0.16-0.1-0.29-0.22-0.39-0.38
			c-0.1-0.16-0.18-0.33-0.22-0.52c-0.05-0.19-0.07-0.38-0.07-0.56h-1.03v0.1c0,0.06,0.01,0.16,0.02,0.29
			c0.01,0.13,0.04,0.28,0.09,0.45s0.12,0.34,0.22,0.52c0.1,0.18,0.23,0.34,0.4,0.48c0.17,0.15,0.38,0.26,0.63,0.36
			c0.25,0.1,0.56,0.14,0.92,0.14c0.39,0,0.73-0.06,1.01-0.18c0.29-0.12,0.53-0.29,0.71-0.51c0.19-0.22,0.33-0.48,0.42-0.79
			c0.09-0.31,0.14-0.64,0.14-1.01c0-0.57-0.14-1-0.4-1.3c-0.27-0.3-0.63-0.49-1.09-0.58v-0.02C44.89,11.24,45.21,11.03,45.41,10.71"
			/>
	</g>
</g>
</svg>
