<?xml version="1.0" encoding="UTF-8" standalone="no"?>
<svg
   width="45.269924mm"
   height="31.826469mm"
   viewBox="0 0 171.07491 120.27235"
   version="1.1"
   id="svg17"
   sodipodi:docname="Logo_Cars.svg"
   inkscape:version="1.2.2 (732a01da63, 2022-12-09)"
   xmlns:inkscape="http://www.inkscape.org/namespaces/inkscape"
   xmlns:sodipodi="http://sodipodi.sourceforge.net/DTD/sodipodi-0.dtd"
   xmlns="http://www.w3.org/2000/svg"
   xmlns:svg="http://www.w3.org/2000/svg">
  <defs
     id="defs21" />
  <sodipodi:namedview
     id="namedview19"
     pagecolor="#ffffff"
     bordercolor="#000000"
     borderopacity="0.25"
     inkscape:showpageshadow="2"
     inkscape:pageopacity="0.0"
     inkscape:pagecheckerboard="0"
     inkscape:deskcolor="#d1d1d1"
     inkscape:document-units="mm"
     showgrid="false"
     inkscape:zoom="2.6833122"
     inkscape:cx="219.50483"
     inkscape:cy="61.863841"
     inkscape:window-width="1920"
     inkscape:window-height="1017"
     inkscape:window-x="-8"
     inkscape:window-y="-8"
     inkscape:window-maximized="1"
     inkscape:current-layer="svg17" />
  <path
     d="m 69.645425,119.05864 c -0.894268,-0.54804 -2.302889,-5.08871 -2.232889,-11.92871 V 80.129929 c -0.05,-4.45 -0.87,-7.65 0.84,-11.96 2.75,-6.98 7.35,-5.71 9.3,-11.08 4.2,-11.63 -0.82,-28.24 14.86,-33.16 2.89,-0.9 6.01,-0.8 9.000004,-0.8 h 36 c 2.53,0 5.56,-0.08 8,0.56 15.82,4.14 11.97,19.56 14.98,31.44 1.59,6.31 5.04,5.79 8.01,10.18 2.09,3.09 1.99,6.27 2.01,9.82 0.05,9.58 0.0172,35.964941 0.1616,42.931561 0.0851,2.20561 -18.08198,2.24985 -18.1616,-0.18632 -0.68309,-6.80835 2.52,-14.56524 -7,-14.69524 h -50.000004 -4.98 c -8.28,1.43 -5.59124,15.20987 -6.99289,15.55787 -1.87898,1.404 -12.402043,1.24502 -13.794221,0.32084 z M 148.41254,59.129929 c -0.41,-4.05 -1.76,-19.29 -3.74,-21.69 -1.91,-2.31 -4.53,-2.26 -7.26,-2.31 h -34 c -11.490004,0.02 -10.080004,2.8 -11.920004,14 -0.44,2.67 -1.93,8.03 0.52,9.98 1.57,1.25 5.42,1.02 7.4,1.02 h 17.000004 23 c 3.75,-0.01 5.32,0.04 9,-1 z m -59.240004,15.76 c -8.13,4.94 -4.91,15.07 6.24,14.18 8.540004,-0.68 9.720004,-9.52 4.770004,-13.34 -2.950004,-2.28 -7.640004,-1.69 -11.010004,-0.84 z m 51.330004,-0.33 c -6.01,2.75 -5.77,10.1 -2.65,12.83 2.18,1.9 7.86,2.12 10.54,1.43 6.04,-1.56 7.7,-9.04 2.96,-13.01 -2.65,-2.23 -7.67,-1.75 -10.85,-1.25 z"
     id="path4085"
     style="fill:#ffffff;fill-opacity:1;stroke:#ffffff;stroke-opacity:1" />
  <path
     d="m 11.412536,37.129929 c -0.43,-4.69 0.57,-9.41 1.52,-14 1.11,-5.42 1.31,-12.6 4.9,-16.8999997 4.27,-5.12 11.31,-6.01999995 17.58,-6.09999995 h 45 c 0.76381,-0.05022 8.4,5.16999995 11,13.99999965 l -12,5 c -2.2,-7.31 -6.38,-6.99 -13,-7 h -29 c -3.2,0.05 -6.21,0.06 -8.69,2.43 -2.97,2.84 -3.7,11.42 -4.21,15.57 -0.21,1.72 -0.56,3.96 0.67,5.4 1.4,1.66 4.26,1.56 6.23,1.6 h 18 21 c -0.28,2.92 -1.45,11.64 -2.53,14 l -7.99,11 c -3.71,6.23 -3.48,11.1 -3.48,18 h -27 c -2.77,0.01 -6.44,-0.29 -8.69,1.6 -3.42,2.88 -2.187065,12.50345 -3.384933,13.80503 -2.741486,3.4399 -12.2150668,4.15497 -15.7550668,-1.51503 -1.17999999,-2.05 -1.13999999,-4.7 -1.16999999,-6.89 v -24 c 0,-12.24 -2.05000001,-20.05 10.99999979,-26 z m 12.04,14.43 c -6.73,2.96 -5.92,10.82 -2.1,13.44 1.99,1.36 8.16,1.34 10.44,0.64 5.06,-1.55 6.1,-9.45 2.19,-12.77 -2.68,-2.29 -7.31,-1.81 -10.53,-1.31 z"
     id="Auswahl" />
  <path
     style="opacity:1;fill:#ffffff;fill-opacity:1;stroke:#ffffff;stroke-width:0.745244;stroke-opacity:1"
     d="M 53.472992,0.59341038 C 44.14627,0.70663969 34.796841,0.66278077 25.484123,0.87287665 20.028664,3.4046298 15.41041,8.0239186 14.673499,14.228278 12.699561,21.602502 11.876048,29.263116 11.282272,36.801798 7.5017539,39.476559 2.7936824,41.860871 1.4499966,46.811651 -0.42542546,58.904557 0.76193698,71.303733 0.56501927,83.512019 1.0782401,88.022444 -0.67620871,94.32892 4.6085519,96.660047 8.2582961,98.327216 13.642705,98.917194 16.752248,95.997768 19.296453,91.445779 17.166752,84.589169 21.705501,81.19768 32.870193,79.407488 44.457003,80.624579 55.781502,80.237023 57.069012,73.918927 56.477834,66.508489 60.905056,61.001857 65.117047,55.273273 69.494634,49.263279 69.885831,41.868585 72.5485,36.114201 67.098692,36.622465 62.771077,36.957544 50.639963,36.477147 38.297472,37.966958 26.3036,36.036176 22.567576,34.515628 25.324684,29.38873 25.034356,26.474635 c 0.489706,-5.279295 1.851058,-11.802254 7.130764,-14.05484 14.312118,0.340754 28.833371,-0.750237 43.023294,0.879156 3.115708,1.040379 3.243161,7.335593 6.923571,4.770971 2.828068,-1.686698 7.087248,-2.092418 9.260746,-4.45366 C 89.407724,8.4020912 85.661613,3.7430479 81.253714,0.37362084 71.993477,0.44688069 62.733233,0.52014754 53.472992,0.59341038 Z M 27.176933,51.112816 c 4.736624,-0.455421 10.180501,3.269217 8.855598,8.57322 0.117747,4.207764 -3.824257,6.27659 -7.549965,6.10023 -3.601503,0.564341 -8.213192,0.11654 -9.381052,-4.078464 -2.543197,-5.001459 2.734399,-11.254986 8.075419,-10.594986 z"
     id="path6309" />
</svg>
